<mxfile host="app.diagrams.net" modified="2021-10-19T11:53:36.735Z" agent="5.0 (Windows)" etag="lvPDDT4--l0UCheAGasG" version="15.5.5" type="github">
  <diagram id="vhaX6pcntOF0Jhp9lL3u" name="Page-1">
    <mxGraphModel dx="1038" dy="538" grid="1" gridSize="10" guides="1" tooltips="1" connect="1" arrows="1" fold="1" page="0" pageScale="1" pageWidth="827" pageHeight="1169" background="#ffffff" math="0" shadow="0">
      <root>
        <mxCell id="0" />
        <mxCell id="1" parent="0" />
        <mxCell id="FUZQEJY77bD7A3YJ2i27-1" value="function renew parameters" style="ellipse;whiteSpace=wrap;html=1;" vertex="1" parent="1">
          <mxGeometry x="365" width="120" height="80" as="geometry" />
        </mxCell>
        <mxCell id="FUZQEJY77bD7A3YJ2i27-2" value="" style="endArrow=classic;html=1;rounded=0;exitX=0.5;exitY=1;exitDx=0;exitDy=0;entryX=0.5;entryY=0;entryDx=0;entryDy=0;" edge="1" parent="1" source="FUZQEJY77bD7A3YJ2i27-1" target="FUZQEJY77bD7A3YJ2i27-5">
          <mxGeometry width="50" height="50" relative="1" as="geometry">
            <mxPoint x="405" y="160" as="sourcePoint" />
            <mxPoint x="425" y="140" as="targetPoint" />
          </mxGeometry>
        </mxCell>
        <mxCell id="FUZQEJY77bD7A3YJ2i27-27" value="" style="edgeStyle=orthogonalEdgeStyle;rounded=0;orthogonalLoop=1;jettySize=auto;html=1;exitX=0.5;exitY=1;exitDx=0;exitDy=0;" edge="1" parent="1" source="FUZQEJY77bD7A3YJ2i27-5" target="FUZQEJY77bD7A3YJ2i27-6">
          <mxGeometry relative="1" as="geometry">
            <mxPoint x="470" y="230" as="sourcePoint" />
          </mxGeometry>
        </mxCell>
        <mxCell id="FUZQEJY77bD7A3YJ2i27-5" value="get all models list" style="rounded=0;whiteSpace=wrap;html=1;" vertex="1" parent="1">
          <mxGeometry x="365" y="100" width="120" height="60" as="geometry" />
        </mxCell>
        <mxCell id="FUZQEJY77bD7A3YJ2i27-11" value="Y" style="edgeStyle=orthogonalEdgeStyle;rounded=0;orthogonalLoop=1;jettySize=auto;html=1;" edge="1" parent="1" source="FUZQEJY77bD7A3YJ2i27-6" target="FUZQEJY77bD7A3YJ2i27-10">
          <mxGeometry relative="1" as="geometry" />
        </mxCell>
        <mxCell id="FUZQEJY77bD7A3YJ2i27-13" value="" style="edgeStyle=orthogonalEdgeStyle;rounded=0;orthogonalLoop=1;jettySize=auto;html=1;" edge="1" parent="1" source="FUZQEJY77bD7A3YJ2i27-6" target="FUZQEJY77bD7A3YJ2i27-12">
          <mxGeometry relative="1" as="geometry" />
        </mxCell>
        <mxCell id="FUZQEJY77bD7A3YJ2i27-14" value="N" style="edgeLabel;html=1;align=center;verticalAlign=middle;resizable=0;points=[];" vertex="1" connectable="0" parent="FUZQEJY77bD7A3YJ2i27-13">
          <mxGeometry x="-0.3052" y="1" relative="1" as="geometry">
            <mxPoint x="-7" y="-1" as="offset" />
          </mxGeometry>
        </mxCell>
        <mxCell id="FUZQEJY77bD7A3YJ2i27-6" value="is model generic" style="strokeWidth=2;html=1;shape=mxgraph.flowchart.decision;whiteSpace=wrap;" vertex="1" parent="1">
          <mxGeometry x="375" y="180" width="100" height="100" as="geometry" />
        </mxCell>
        <mxCell id="FUZQEJY77bD7A3YJ2i27-10" value="&lt;div&gt;change&lt;/div&gt;&lt;div&gt; parameters&lt;/div&gt;" style="shape=parallelogram;perimeter=parallelogramPerimeter;whiteSpace=wrap;html=1;fixedSize=1;strokeWidth=2;" vertex="1" parent="1">
          <mxGeometry x="550" y="200" width="120" height="60" as="geometry" />
        </mxCell>
        <mxCell id="FUZQEJY77bD7A3YJ2i27-12" value="&lt;div&gt;choose next&lt;/div&gt;&lt;div&gt; model&lt;/div&gt;" style="shape=parallelogram;perimeter=parallelogramPerimeter;whiteSpace=wrap;html=1;fixedSize=1;strokeWidth=2;" vertex="1" parent="1">
          <mxGeometry x="205" y="200" width="120" height="60" as="geometry" />
        </mxCell>
        <mxCell id="FUZQEJY77bD7A3YJ2i27-19" value="Y" style="edgeStyle=orthogonalEdgeStyle;rounded=0;orthogonalLoop=1;jettySize=auto;html=1;" edge="1" parent="1" source="FUZQEJY77bD7A3YJ2i27-15" target="FUZQEJY77bD7A3YJ2i27-18">
          <mxGeometry x="0.1579" relative="1" as="geometry">
            <mxPoint as="offset" />
          </mxGeometry>
        </mxCell>
        <mxCell id="FUZQEJY77bD7A3YJ2i27-21" value="N" style="edgeStyle=orthogonalEdgeStyle;rounded=0;orthogonalLoop=1;jettySize=auto;html=1;" edge="1" parent="1" source="FUZQEJY77bD7A3YJ2i27-15" target="FUZQEJY77bD7A3YJ2i27-20">
          <mxGeometry relative="1" as="geometry" />
        </mxCell>
        <mxCell id="FUZQEJY77bD7A3YJ2i27-15" value="is it asm " style="rhombus;whiteSpace=wrap;html=1;strokeWidth=2;" vertex="1" parent="1">
          <mxGeometry x="385" y="330" width="80" height="80" as="geometry" />
        </mxCell>
        <mxCell id="FUZQEJY77bD7A3YJ2i27-17" value="" style="edgeStyle=orthogonalEdgeStyle;rounded=0;orthogonalLoop=1;jettySize=auto;html=1;exitX=0.5;exitY=1;exitDx=0;exitDy=0;entryX=0.5;entryY=0;entryDx=0;entryDy=0;" edge="1" parent="1" source="FUZQEJY77bD7A3YJ2i27-10" target="FUZQEJY77bD7A3YJ2i27-15">
          <mxGeometry relative="1" as="geometry">
            <mxPoint x="240.05882352941182" y="340" as="sourcePoint" />
            <mxPoint x="425" y="420" as="targetPoint" />
            <Array as="points">
              <mxPoint x="610" y="300" />
              <mxPoint x="425" y="300" />
              <mxPoint x="425" y="330" />
            </Array>
          </mxGeometry>
        </mxCell>
        <mxCell id="FUZQEJY77bD7A3YJ2i27-18" value="renew asm relations" style="shape=parallelogram;perimeter=parallelogramPerimeter;whiteSpace=wrap;html=1;fixedSize=1;strokeWidth=2;" vertex="1" parent="1">
          <mxGeometry x="550" y="340" width="120" height="60" as="geometry" />
        </mxCell>
        <mxCell id="FUZQEJY77bD7A3YJ2i27-20" value="renew prt relation" style="shape=parallelogram;perimeter=parallelogramPerimeter;whiteSpace=wrap;html=1;fixedSize=1;strokeWidth=2;" vertex="1" parent="1">
          <mxGeometry x="205" y="340" width="120" height="60" as="geometry" />
        </mxCell>
      </root>
    </mxGraphModel>
  </diagram>
</mxfile>
